<svg xmlns="http://www.w3.org/2000/svg" viewBox="0 0 1600 900" font-family="Verdana, 'Segoe UI', Helvetica, Arial, sans-serif">
  
  <defs>
    <linearGradient id="bg" x1="0" y1="0" x2="1" y2="1">
      <stop offset="0" stop-color="#16150f"/>
      <stop offset="0.55" stop-color="#141414"/>
      <stop offset="1" stop-color="#100f0c"/>
    </linearGradient>
    <linearGradient id="goldg" x1="0" y1="0" x2="1" y2="1">
      <stop offset="0" stop-color="#E7C988"/>
      <stop offset="1" stop-color="#B6863F"/>
    </linearGradient>
    <radialGradient id="vig" cx="0.5" cy="0.42" r="0.75">
      <stop offset="0.6" stop-color="#000000" stop-opacity="0"/>
      <stop offset="1" stop-color="#000000" stop-opacity="0.45"/>
    </radialGradient>
    <marker id="arrow" viewBox="0 0 10 10" refX="8.5" refY="5" markerWidth="7" markerHeight="7" orient="auto-start-reverse">
      <path d="M0,0 L10,5 L0,10 z" fill="#CDA45E"/>
    </marker>
    <marker id="arrowf" viewBox="0 0 10 10" refX="8.5" refY="5" markerWidth="7" markerHeight="7" orient="auto-start-reverse">
      <path d="M0,0 L10,5 L0,10 z" fill="#6f6957"/>
    </marker>
  </defs>
  <rect width="1600" height="900" fill="url(#bg)"/>
  <circle cx="1080" cy="380" r="80" fill="none" stroke="#CDA45E" stroke-width="2" opacity="0.27"/><circle cx="1080" cy="380" r="160" fill="none" stroke="#CDA45E" stroke-width="2" opacity="0.22"/><circle cx="1080" cy="380" r="240" fill="none" stroke="#CDA45E" stroke-width="2" opacity="0.16999999999999998"/><circle cx="1080" cy="380" r="320" fill="none" stroke="#CDA45E" stroke-width="2" opacity="0.12"/><circle cx="1080" cy="380" r="400" fill="none" stroke="#CDA45E" stroke-width="2" opacity="0.07"/><ellipse cx="1080" cy="380" rx="120" ry="62" fill="none" stroke="url(#goldg)" stroke-width="6"/>
      <circle cx="1080" cy="380" r="34" fill="#1b1b1b" stroke="#CDA45E" stroke-width="6"/>
      <circle cx="1080" cy="380" r="10" fill="#CDA45E"/><rect x="300" y="640" width="34" height="60" rx="6" fill="#CDA45E" opacity="0.25"/><rect x="370" y="600" width="34" height="100" rx="6" fill="#CDA45E" opacity="0.25"/><rect x="440" y="560" width="34" height="140" rx="6" fill="#CDA45E" opacity="0.25"/><rect x="510" y="640" width="34" height="60" rx="6" fill="#CDA45E" opacity="0.25"/><rect x="580" y="600" width="34" height="100" rx="6" fill="#CDA45E" opacity="0.25"/>
  <rect width="1600" height="900" fill="url(#vig)"/>
  <rect x="14" y="14" width="1572" height="872" rx="22" fill="none" stroke="#2a2a2a" stroke-width="2"/>
  <text x="92" y="750" fill="#CDA45E" font-size="28" letter-spacing="7" font-weight="bold">SSVEP BCI SPELLER</text>
  <text x="88" y="822" fill="#E5DCC5" font-size="92" letter-spacing="2" font-weight="bold">Inkling</text>
</svg>
