<svg xmlns="http://www.w3.org/2000/svg" viewBox="0 0 1600 900" font-family="Verdana, 'Segoe UI', Helvetica, Arial, sans-serif">
  
  <defs>
    <linearGradient id="bg" x1="0" y1="0" x2="1" y2="1">
      <stop offset="0" stop-color="#16150f"/>
      <stop offset="0.55" stop-color="#141414"/>
      <stop offset="1" stop-color="#100f0c"/>
    </linearGradient>
    <linearGradient id="goldg" x1="0" y1="0" x2="1" y2="1">
      <stop offset="0" stop-color="#E7C988"/>
      <stop offset="1" stop-color="#B6863F"/>
    </linearGradient>
    <radialGradient id="vig" cx="0.5" cy="0.42" r="0.75">
      <stop offset="0.6" stop-color="#000000" stop-opacity="0"/>
      <stop offset="1" stop-color="#000000" stop-opacity="0.45"/>
    </radialGradient>
    <marker id="arrow" viewBox="0 0 10 10" refX="8.5" refY="5" markerWidth="7" markerHeight="7" orient="auto-start-reverse">
      <path d="M0,0 L10,5 L0,10 z" fill="#CDA45E"/>
    </marker>
    <marker id="arrowf" viewBox="0 0 10 10" refX="8.5" refY="5" markerWidth="7" markerHeight="7" orient="auto-start-reverse">
      <path d="M0,0 L10,5 L0,10 z" fill="#6f6957"/>
    </marker>
  </defs>
  <rect width="1600" height="900" fill="url(#bg)"/>
  <path d="M520,400 C520,250 760,250 800,400 C840,550 1080,550 1080,400 C1080,250 840,250 800,400 C760,550 520,550 520,400 Z"
      fill="none" stroke="url(#goldg)" stroke-width="5" opacity="0.85"/><circle cx="520" cy="400" r="9" fill="#CDA45E"/><circle cx="800" cy="400" r="9" fill="#CDA45E"/><circle cx="1080" cy="400" r="9" fill="#CDA45E"/><circle cx="660" cy="300" r="9" fill="#CDA45E"/><circle cx="940" cy="500" r="9" fill="#CDA45E"/><path d="M360,690 Q384.44444444444446,660 408.8888888888889,690 Q433.3333333333333,745.2441295442369 457.77777777777777,690 Q482.2222222222222,632.7210771952296 506.66666666666663,690 Q531.1111111111111,724.233600241796 555.5555555555555,690 Q580,682.7040748592378 604.4444444444445,690 Q628.8888888888888,691.2322717601058 653.3333333333333,690 Q677.7777777777777,668.3824649459677 702.2222222222222,690 Q726.6666666666666,739.7095979615636 751.1111111111111,690 Q775.5555555555555,630.3192526012986 800,690 Q824.4444444444445,732.3635545572527 848.8888888888889,690 Q873.3333333333333,676.3206333266811 897.7777777777777,690 Q922.2222222222222,690.0002938034789 946.6666666666666,690 Q971.1111111111111,676.097187540013 995.5555555555555,690 Q1019.9999999999999,732.6050111047992 1044.4444444444443,690 Q1068.888888888889,630.2817793291539 1093.3333333333333,690 Q1117.7777777777778,739.5086352047135 1142.2222222222222,690 Q1166.6666666666667,668.637099499952 1191.111111111111,690 Q1215.5555555555557,691.1580752436133 1240,690" fill="none" stroke="#CDA45E" stroke-width="3" opacity="0.85"/>
  <rect width="1600" height="900" fill="url(#vig)"/>
  <rect x="14" y="14" width="1572" height="872" rx="22" fill="none" stroke="#2a2a2a" stroke-width="2"/>
  <text x="92" y="750" fill="#CDA45E" font-size="28" letter-spacing="7" font-weight="bold">OPEN-SOURCE NEUROFEEDBACK</text>
  <text x="88" y="822" fill="#E5DCC5" font-size="92" letter-spacing="2" font-weight="bold">Neuroloopy</text>
</svg>
