<svg xmlns="http://www.w3.org/2000/svg" viewBox="0 0 1600 900" font-family="Verdana, 'Segoe UI', Helvetica, Arial, sans-serif">
  
  <defs>
    <linearGradient id="bg" x1="0" y1="0" x2="1" y2="1">
      <stop offset="0" stop-color="#16150f"/>
      <stop offset="0.55" stop-color="#141414"/>
      <stop offset="1" stop-color="#100f0c"/>
    </linearGradient>
    <linearGradient id="goldg" x1="0" y1="0" x2="1" y2="1">
      <stop offset="0" stop-color="#E7C988"/>
      <stop offset="1" stop-color="#B6863F"/>
    </linearGradient>
    <radialGradient id="vig" cx="0.5" cy="0.42" r="0.75">
      <stop offset="0.6" stop-color="#000000" stop-opacity="0"/>
      <stop offset="1" stop-color="#000000" stop-opacity="0.45"/>
    </radialGradient>
    <marker id="arrow" viewBox="0 0 10 10" refX="8.5" refY="5" markerWidth="7" markerHeight="7" orient="auto-start-reverse">
      <path d="M0,0 L10,5 L0,10 z" fill="#CDA45E"/>
    </marker>
    <marker id="arrowf" viewBox="0 0 10 10" refX="8.5" refY="5" markerWidth="7" markerHeight="7" orient="auto-start-reverse">
      <path d="M0,0 L10,5 L0,10 z" fill="#6f6957"/>
    </marker>
  </defs>
  <rect width="1600" height="900" fill="url(#bg)"/>
  <g stroke="url(#goldg)" stroke-width="12" fill="none" stroke-linecap="round" opacity="0.9">
      <path d="M360,250 L360,470"/>
      <path d="M360,470 L300,700"/>
    </g>
    <circle cx="360" cy="250" r="20" fill="#1b1b1b" stroke="#CDA45E" stroke-width="6"/>
    <circle cx="360" cy="470" r="18" fill="#1b1b1b" stroke="#CDA45E" stroke-width="6"/>
    <circle cx="300" cy="700" r="16" fill="#1b1b1b" stroke="#CDA45E" stroke-width="6"/>
    <g opacity="0.5"><path d="M400,470 a70,70 0 0 1 20,-60" fill="none" stroke="#CDA45E" stroke-width="3"/></g><path d="M820,360 Q842.1428571428572,300 864.2857142857143,360 Q886.4285714285714,470.4882590884738 908.5714285714286,360 Q930.7142857142858,245.4421543904591 952.8571428571429,360 Q975,428.467200483592 997.1428571428571,360 Q1019.2857142857142,345.40814971847567 1041.4285714285713,360 Q1063.5714285714287,362.4645435202117 1085.7142857142858,360 Q1107.857142857143,316.76492989193554 1130,360 Q1152.142857142857,459.41919592312735 1174.2857142857142,360 Q1196.4285714285713,240.6385052025971 1218.5714285714284,360 Q1240.7142857142858,444.7271091145054 1262.857142857143,360 Q1285,332.6412666533622 1307.142857142857,360 Q1329.2857142857144,360.00058760695777 1351.4285714285716,360 Q1373.5714285714287,332.1943750800261 1395.7142857142858,360 Q1417.857142857143,445.2100222095985 1440,360" fill="none" stroke="#CDA45E" stroke-width="4" opacity="0.85"/>
  <rect width="1600" height="900" fill="url(#vig)"/>
  <rect x="14" y="14" width="1572" height="872" rx="22" fill="none" stroke="#2a2a2a" stroke-width="2"/>
  <text x="92" y="750" fill="#CDA45E" font-size="28" letter-spacing="7" font-weight="bold">EMG EXOSKELETON CONCEPT</text>
  <text x="88" y="822" fill="#E5DCC5" font-size="92" letter-spacing="2" font-weight="bold">Parkinsync</text>
</svg>
