<svg xmlns="http://www.w3.org/2000/svg" viewBox="0 0 1600 820" font-family="'Latin Modern Roman','CMU Serif',Georgia,'Times New Roman',serif">
  
  <defs>
    <marker id="ah" viewBox="0 0 12 12" refX="10" refY="6" markerWidth="11" markerHeight="11" orient="auto-start-reverse">
      <path d="M1,1 L11,6 L1,11 L4,6 z" fill="#111111"/>
    </marker>
  </defs>
  <rect width="1600" height="820" fill="#ffffff"/>
  <text x="800" y="84" font-size="36" font-weight="bold" text-anchor="middle" fill="#111111">Neurofeedback de-escalation loop</text>
  <path d="M96,380 L208,380" fill="none" stroke="#111111" stroke-width="2" marker-end="url(#ah)"/><text x="162" y="364" font-size="22" font-style="italic" text-anchor="middle" fill="#111111">r(t)</text><circle cx="235" cy="380" r="27" fill="#ffffff" stroke="#111111" stroke-width="2"/>
    <line x1="224" y1="380" x2="246" y2="380" stroke="#111111" stroke-width="1.4"/>
    <line x1="235" y1="369" x2="235" y2="391" stroke="#111111" stroke-width="1.4"/><text x="194" y="370" font-size="30" text-anchor="middle" fill="#111111">+</text><text x="247" y="429" font-size="30" text-anchor="middle" fill="#111111">−</text><path d="M262,380 L345,380" fill="none" stroke="#111111" stroke-width="2" marker-end="url(#ah)"/><text x="303.5" y="364" font-size="22" font-style="italic" text-anchor="middle" fill="#111111">e(t)</text><rect x="345" y="314" width="232" height="132" fill="#ffffff" stroke="#111111" stroke-width="2"/><text x="461" y="374" font-size="27" text-anchor="middle" fill="#111111">Arousal est.</text>
       <text x="461" y="406" font-size="19" font-style="italic" text-anchor="middle" fill="#111111">reactivity</text><rect x="673" y="314" width="232" height="132" fill="#ffffff" stroke="#111111" stroke-width="2"/><text x="789" y="374" font-size="27" text-anchor="middle" fill="#111111">Game controller</text>
       <text x="789" y="406" font-size="19" font-style="italic" text-anchor="middle" fill="#111111">threat ↔ calm</text><rect x="1001" y="314" width="232" height="132" fill="#ffffff" stroke="#111111" stroke-width="2"/><text x="1117" y="374" font-size="27" text-anchor="middle" fill="#111111">Player</text>
       <text x="1117" y="406" font-size="19" font-style="italic" text-anchor="middle" fill="#111111">response</text><path d="M577,380 L673,380" fill="none" stroke="#111111" stroke-width="2" marker-end="url(#ah)"/><path d="M905,380 L1001,380" fill="none" stroke="#111111" stroke-width="2" marker-end="url(#ah)"/><path d="M1233,380 L1470,380" fill="none" stroke="#111111" stroke-width="2" marker-end="url(#ah)"/><text x="1400" y="364" font-size="22" font-style="italic" text-anchor="middle" fill="#111111">y(t)</text><circle cx="1383" cy="380" r="4.5" fill="#111111"/><rect x="615" y="546" width="232" height="132" fill="#ffffff" stroke="#111111" stroke-width="2"/><text x="731" y="606" font-size="27" text-anchor="middle" fill="#111111">Sensor</text>
       <text x="731" y="638" font-size="19" font-style="italic" text-anchor="middle" fill="#111111">arousal</text><path d="M1383,380 L1383,600 L847,600" fill="none" stroke="#111111" stroke-width="2" marker-end="url(#ah)"/><path d="M615,600 L235,600 L235,407" fill="none" stroke="#111111" stroke-width="2" marker-end="url(#ah)"/><text x="1115" y="586" font-size="22" font-style="italic" text-anchor="middle" fill="#111111">measured arousal</text>
  <line x1="120" y1="724" x2="1480" y2="724" stroke="#cccccc" stroke-width="1"/>
  <text x="120" y="766" font-size="22" fill="#111111"><tspan font-weight="bold">Figure 1:</tspan> <tspan font-style="italic">Measured arousal is compared with a calm target; cues drive sympathetic de-escalation.</tspan></text>
</svg>
