<svg xmlns="http://www.w3.org/2000/svg" viewBox="0 0 1600 900" font-family="Verdana, 'Segoe UI', Helvetica, Arial, sans-serif">
  
  <defs>
    <linearGradient id="bg" x1="0" y1="0" x2="1" y2="1">
      <stop offset="0" stop-color="#16150f"/>
      <stop offset="0.55" stop-color="#141414"/>
      <stop offset="1" stop-color="#100f0c"/>
    </linearGradient>
    <linearGradient id="goldg" x1="0" y1="0" x2="1" y2="1">
      <stop offset="0" stop-color="#E7C988"/>
      <stop offset="1" stop-color="#B6863F"/>
    </linearGradient>
    <radialGradient id="vig" cx="0.5" cy="0.42" r="0.75">
      <stop offset="0.6" stop-color="#000000" stop-opacity="0"/>
      <stop offset="1" stop-color="#000000" stop-opacity="0.45"/>
    </radialGradient>
    <marker id="arrow" viewBox="0 0 10 10" refX="8.5" refY="5" markerWidth="7" markerHeight="7" orient="auto-start-reverse">
      <path d="M0,0 L10,5 L0,10 z" fill="#CDA45E"/>
    </marker>
    <marker id="arrowf" viewBox="0 0 10 10" refX="8.5" refY="5" markerWidth="7" markerHeight="7" orient="auto-start-reverse">
      <path d="M0,0 L10,5 L0,10 z" fill="#6f6957"/>
    </marker>
  </defs>
  <rect width="1600" height="900" fill="url(#bg)"/>
  <rect width="1600" height="900" fill="url(#vig)"/>
  <rect x="14" y="14" width="1572" height="872" rx="22" fill="none" stroke="#2a2a2a" stroke-width="2"/>
  <text x="90" y="108" fill="#CDA45E" font-size="26" letter-spacing="6" font-weight="bold">NEUROFEEDBACK GAME · IC FEMHACK</text>
  <text x="88" y="178" fill="#E5DCC5" font-size="62" letter-spacing="1" font-weight="bold">From Fight-or-Flight to Flow</text>
  <g>
    <rect x="90" y="380" width="256" height="150" rx="16" fill="#1b1b1b" stroke="#3a352a" stroke-width="2"/>
    <circle cx="120" cy="414" r="9" fill="none" stroke="#CDA45E" stroke-width="2.5"/>
            <circle cx="120" cy="414" r="2.6" fill="#CDA45E"/>
    <text x="218" y="457" fill="#E5DCC5" font-size="25" font-weight="bold" text-anchor="middle">Arousal sensor</text>
    <text x="218" y="487" fill="#A69F88" font-size="19" text-anchor="middle">Reactivity</text>
  </g>
    <g>
    <rect x="381" y="380" width="256" height="150" rx="16" fill="#1b1b1b" stroke="#3a352a" stroke-width="2"/>
    <circle cx="411" cy="414" r="9" fill="none" stroke="#CDA45E" stroke-width="2.5"/>
            <circle cx="411" cy="414" r="2.6" fill="#CDA45E"/>
    <text x="509" y="457" fill="#E5DCC5" font-size="25" font-weight="bold" text-anchor="middle">State estimate</text>
    <text x="509" y="487" fill="#A69F88" font-size="19" text-anchor="middle">Stress level</text>
  </g>
    <g>
    <rect x="672" y="380" width="256" height="150" rx="16" fill="#1b1b1b" stroke="#3a352a" stroke-width="2"/>
    <circle cx="702" cy="414" r="9" fill="none" stroke="#CDA45E" stroke-width="2.5"/>
            <circle cx="702" cy="414" r="2.6" fill="#CDA45E"/>
    <text x="800" y="457" fill="#E5DCC5" font-size="25" font-weight="bold" text-anchor="middle">Game world</text>
    <text x="800" y="487" fill="#A69F88" font-size="19" text-anchor="middle">Threat ↔ calm</text>
  </g>
    <g>
    <rect x="963" y="380" width="256" height="150" rx="16" fill="#1b1b1b" stroke="#3a352a" stroke-width="2"/>
    <circle cx="993" cy="414" r="9" fill="none" stroke="#CDA45E" stroke-width="2.5"/>
            <circle cx="993" cy="414" r="2.6" fill="#CDA45E"/>
    <text x="1091" y="457" fill="#E5DCC5" font-size="25" font-weight="bold" text-anchor="middle">Cue</text>
    <text x="1091" y="487" fill="#A69F88" font-size="19" text-anchor="middle">Visual + audio</text>
  </g>
    <g>
    <rect x="1254" y="380" width="256" height="150" rx="16" fill="rgba(205,164,94,0.10)" stroke="#CDA45E" stroke-width="2"/>
    <circle cx="1284" cy="414" r="9" fill="none" stroke="#CDA45E" stroke-width="2.5"/>
            <circle cx="1284" cy="414" r="2.6" fill="#CDA45E"/>
    <text x="1382" y="457" fill="#CDA45E" font-size="25" font-weight="bold" text-anchor="middle">Down-regulate</text>
    <text x="1382" y="487" fill="#A69F88" font-size="19" text-anchor="middle">SNS deactivation</text>
  </g>
    <path d="M346,455 C416,455 311,455 381,455" fill="none" stroke="#CDA45E" stroke-width="2.4" opacity="0.9" marker-end="url(#arrow)"/>
    <path d="M637,455 C707,455 602,455 672,455" fill="none" stroke="#CDA45E" stroke-width="2.4" opacity="0.9" marker-end="url(#arrow)"/>
    <path d="M928,455 C998,455 893,455 963,455" fill="none" stroke="#CDA45E" stroke-width="2.4" opacity="0.9" marker-end="url(#arrow)"/>
    <path d="M1219,455 C1289,455 1184,455 1254,455" fill="none" stroke="#CDA45E" stroke-width="2.4" opacity="0.9" marker-end="url(#arrow)"/>
    <path d="M1382,530 C1382,680 218,680 218,530" fill="none" stroke="#6f6957" stroke-width="2.4" stroke-dasharray="9 8" opacity="0.7" marker-end="url(#arrowf)"/>
    <text x="800" y="686" fill="#6f6957" font-size="19" text-anchor="middle" font-style="italic">player feedback</text>
  <text x="90" y="844" fill="#A69F88" font-size="26" font-style="italic">Calm the body to win the game.</text>
  <text x="1510" y="844" fill="#6f6957" font-size="22" text-anchor="end" letter-spacing="3">HILDELITH LEYSER</text>
</svg>
