<svg xmlns="http://www.w3.org/2000/svg" viewBox="0 0 1600 820" font-family="'Latin Modern Roman','CMU Serif',Georgia,'Times New Roman',serif">
  
  <defs>
    <marker id="ah" viewBox="0 0 12 12" refX="10" refY="6" markerWidth="11" markerHeight="11" orient="auto-start-reverse">
      <path d="M1,1 L11,6 L1,11 L4,6 z" fill="#111111"/>
    </marker>
  </defs>
  <rect width="1600" height="820" fill="#ffffff"/>
  <text x="800" y="84" font-size="36" font-weight="bold" text-anchor="middle" fill="#111111">Dual-EEG hyperscanning pipeline</text>
  <text x="150" y="246" font-size="22" font-style="italic" fill="#111111">EEG A</text><text x="150" y="486" font-size="22" font-style="italic" fill="#111111">EEG B</text><path d="M120,260 L300,260 L300,350 L360,350" fill="none" stroke="#111111" stroke-width="2" marker-end="url(#ah)"/><path d="M120,500 L300,500 L300,410 L360,410" fill="none" stroke="#111111" stroke-width="2" marker-end="url(#ah)"/><rect x="360" y="314" width="232" height="132" fill="#ffffff" stroke="#111111" stroke-width="2"/><text x="476" y="374" font-size="27" text-anchor="middle" fill="#111111">Acquisition</text>
       <text x="476" y="406" font-size="19" font-style="italic" text-anchor="middle" fill="#111111">synced</text><path d="M592,380 L702,380" fill="none" stroke="#111111" stroke-width="2" marker-end="url(#ah)"/><text x="647" y="364" font-size="22" font-style="italic" text-anchor="middle" fill="#111111">x(t)</text><rect x="702" y="314" width="232" height="132" fill="#ffffff" stroke="#111111" stroke-width="2"/><text x="818" y="374" font-size="27" text-anchor="middle" fill="#111111">Coherence</text>
       <text x="818" y="406" font-size="19" font-style="italic" text-anchor="middle" fill="#111111">PLV / PSD</text><path d="M934,380 L1044,380" fill="none" stroke="#111111" stroke-width="2" marker-end="url(#ah)"/><rect x="1044" y="314" width="232" height="132" fill="#ffffff" stroke="#111111" stroke-width="2"/><text x="1160" y="374" font-size="27" text-anchor="middle" fill="#111111">Synchrony</text>
       <text x="1160" y="406" font-size="19" font-style="italic" text-anchor="middle" fill="#111111">index ŝ(t)</text><path d="M1276,380 L1470,380" fill="none" stroke="#111111" stroke-width="2" marker-end="url(#ah)"/><text x="1410" y="364" font-size="22" font-style="italic" text-anchor="middle" fill="#111111">ŝ</text><circle cx="1426" cy="380" r="4.5" fill="#111111"/><rect x="510" y="546" width="232" height="132" fill="#ffffff" stroke="#111111" stroke-width="2"/><text x="626" y="606" font-size="27" text-anchor="middle" fill="#111111">Neurofeedback</text>
       <text x="626" y="638" font-size="19" font-style="italic" text-anchor="middle" fill="#111111">shared display</text><path d="M1426,380 L1426,600 L742,600" fill="none" stroke="#111111" stroke-width="2" marker-end="url(#ah)"/><path d="M510,600 L180,600 L180,260 L120,260" fill="none" stroke="#111111" stroke-width="2" marker-end="url(#ah)"/><path d="M300,600 L300,500 L120,500" fill="none" stroke="#111111" stroke-width="2" marker-end="url(#ah)"/><text x="1084" y="586" font-size="22" font-style="italic" text-anchor="middle" fill="#111111">real-time feedback</text>
  <line x1="120" y1="724" x2="1480" y2="724" stroke="#cccccc" stroke-width="1"/>
  <text x="120" y="766" font-size="22" fill="#111111"><tspan font-weight="bold">Figure 1:</tspan> <tspan font-style="italic">Synchronous dual-EEG; coherence gives an inter-brain synchrony index for shared neurofeedback.</tspan></text>
</svg>
